<?xml version="1.0" encoding="utf-8"?>
<svg width="400px" height="400px" viewBox="0 0 32 32" fill="none" xmlns="http://www.w3.org/2000/svg">
  <path d="M15.942 8c-4.062 0-3.808 1.761-3.808 1.761l.005 1.825h3.876v.547H10.598S8 11.839 8 15.938c0 4.098 2.269 3.953 2.269 3.953h1.354v-1.902s-.073-2.269 2.233-2.269h3.844s2.16.035 2.16-2.087v-3.51S20.187 8 15.942 8zm-2.137 1.227c.385 0 .698.312.698.698s-.312.698-.698.698a.697.697 0 0 1-.698-.698c0-.385.312-.698.698-.698z" fill="url(#a)"/>
  <path d="M16.058 23.916c4.062 0 3.808-1.761 3.808-1.761l-.005-1.825h-3.876v-.547h5.416S24 19.839 24 15.938c0-4.098-2.269-3.953-2.269-3.953h-1.354v1.902s.073 2.269-2.233 2.269h-3.844s-2.16-.035-2.16 2.087v3.51s-.328 2.123 3.916 2.123zm2.137-1.227a.697.697 0 0 1-.698-.698c0-.385.312-.698.698-.698s.698.312.698.698c0 .385-.312.698-.698.698z" fill="url(#b)"/>
  <defs>
    <linearGradient id="a" x1="9.537" y1="9.391" x2="17.449" y2="17.329" gradientUnits="userSpaceOnUse">
      <stop stop-color="#387EB8"/>
      <stop offset="1" stop-color="#366994"/>
    </linearGradient>
    <linearGradient id="b" x1="14.404" y1="14.441" x2="22.902" y2="22.582" gradientUnits="userSpaceOnUse">
      <stop stop-color="#FFE052"/>
      <stop offset="1" stop-color="#FFC331"/>
    </linearGradient>
  </defs>
</svg>
